<mxfile host="app.diagrams.net" agent="Mozilla/5.0 (Windows NT 10.0; Win64; x64) AppleWebKit/537.36 (KHTML, like Gecko) Chrome/130.0.0.0 Safari/537.36" version="24.8.3">
  <diagram name="Page-1" id="tqT-y1WTtd_BVgNt3FM8">
    <mxGraphModel grid="1" page="1" gridSize="10" guides="1" tooltips="1" connect="1" arrows="1" fold="1" pageScale="1" pageWidth="827" pageHeight="1169" background="#ffffff" math="0" shadow="1">
      <root>
        <mxCell id="0" />
        <mxCell id="1" parent="0" />
        <mxCell id="uPx1fFkBoxGe7iKVYnNN-1" value="PDF Files&amp;nbsp;" style="rounded=1;whiteSpace=wrap;html=1;" vertex="1" parent="1">
          <mxGeometry x="360" y="80" width="117" height="40" as="geometry" />
        </mxCell>
        <mxCell id="uPx1fFkBoxGe7iKVYnNN-2" value="Extract Data" style="rounded=1;whiteSpace=wrap;html=1;" vertex="1" parent="1">
          <mxGeometry x="360" y="200" width="120" height="40" as="geometry" />
        </mxCell>
        <mxCell id="uPx1fFkBoxGe7iKVYnNN-14" value="" style="edgeStyle=orthogonalEdgeStyle;curved=1;rounded=0;orthogonalLoop=1;jettySize=auto;html=1;" edge="1" parent="1" source="uPx1fFkBoxGe7iKVYnNN-3" target="uPx1fFkBoxGe7iKVYnNN-11">
          <mxGeometry relative="1" as="geometry" />
        </mxCell>
        <mxCell id="uPx1fFkBoxGe7iKVYnNN-3" value="Text Chunk 1" style="rounded=1;whiteSpace=wrap;html=1;" vertex="1" parent="1">
          <mxGeometry x="200" y="320" width="120" height="40" as="geometry" />
        </mxCell>
        <mxCell id="uPx1fFkBoxGe7iKVYnNN-16" value="" style="edgeStyle=orthogonalEdgeStyle;curved=1;rounded=0;orthogonalLoop=1;jettySize=auto;html=1;" edge="1" parent="1" source="uPx1fFkBoxGe7iKVYnNN-4" target="uPx1fFkBoxGe7iKVYnNN-13">
          <mxGeometry relative="1" as="geometry" />
        </mxCell>
        <mxCell id="uPx1fFkBoxGe7iKVYnNN-4" value="Text Chunk n" style="rounded=1;whiteSpace=wrap;html=1;" vertex="1" parent="1">
          <mxGeometry x="520" y="320" width="120" height="40" as="geometry" />
        </mxCell>
        <mxCell id="uPx1fFkBoxGe7iKVYnNN-15" value="" style="edgeStyle=orthogonalEdgeStyle;curved=1;rounded=0;orthogonalLoop=1;jettySize=auto;html=1;" edge="1" parent="1" source="uPx1fFkBoxGe7iKVYnNN-5" target="uPx1fFkBoxGe7iKVYnNN-12">
          <mxGeometry relative="1" as="geometry" />
        </mxCell>
        <mxCell id="uPx1fFkBoxGe7iKVYnNN-18" value="" style="edgeStyle=orthogonalEdgeStyle;curved=1;rounded=0;orthogonalLoop=1;jettySize=auto;html=1;" edge="1" parent="1" source="uPx1fFkBoxGe7iKVYnNN-5" target="uPx1fFkBoxGe7iKVYnNN-4">
          <mxGeometry relative="1" as="geometry" />
        </mxCell>
        <mxCell id="uPx1fFkBoxGe7iKVYnNN-5" value="Text Chunk 2" style="rounded=1;whiteSpace=wrap;html=1;" vertex="1" parent="1">
          <mxGeometry x="360" y="320" width="120" height="40" as="geometry" />
        </mxCell>
        <mxCell id="uPx1fFkBoxGe7iKVYnNN-6" value="" style="shape=flexArrow;endArrow=classic;html=1;rounded=0;" edge="1" parent="1">
          <mxGeometry width="50" height="50" relative="1" as="geometry">
            <mxPoint x="418" y="120" as="sourcePoint" />
            <mxPoint x="418" y="190" as="targetPoint" />
            <Array as="points" />
          </mxGeometry>
        </mxCell>
        <mxCell id="uPx1fFkBoxGe7iKVYnNN-7" value="" style="shape=flexArrow;endArrow=classic;html=1;rounded=0;" edge="1" parent="1">
          <mxGeometry width="50" height="50" relative="1" as="geometry">
            <mxPoint x="419.5" y="250" as="sourcePoint" />
            <mxPoint x="419.5" y="320" as="targetPoint" />
            <Array as="points" />
          </mxGeometry>
        </mxCell>
        <mxCell id="uPx1fFkBoxGe7iKVYnNN-8" value="" style="shape=flexArrow;endArrow=classic;html=1;rounded=0;exitX=0;exitY=1;exitDx=0;exitDy=0;" edge="1" parent="1" source="uPx1fFkBoxGe7iKVYnNN-2">
          <mxGeometry width="50" height="50" relative="1" as="geometry">
            <mxPoint x="259.5" y="250" as="sourcePoint" />
            <mxPoint x="259.5" y="320" as="targetPoint" />
            <Array as="points" />
          </mxGeometry>
        </mxCell>
        <mxCell id="uPx1fFkBoxGe7iKVYnNN-9" value="" style="shape=flexArrow;endArrow=classic;html=1;rounded=0;exitX=1;exitY=1;exitDx=0;exitDy=0;" edge="1" parent="1" source="uPx1fFkBoxGe7iKVYnNN-2">
          <mxGeometry width="50" height="50" relative="1" as="geometry">
            <mxPoint x="579.5" y="250" as="sourcePoint" />
            <mxPoint x="579.5" y="320" as="targetPoint" />
            <Array as="points" />
          </mxGeometry>
        </mxCell>
        <mxCell id="uPx1fFkBoxGe7iKVYnNN-25" value="" style="edgeStyle=orthogonalEdgeStyle;curved=1;rounded=0;orthogonalLoop=1;jettySize=auto;html=1;entryX=0.449;entryY=0.012;entryDx=0;entryDy=0;entryPerimeter=0;" edge="1" parent="1">
          <mxGeometry relative="1" as="geometry">
            <mxPoint x="250" y="480" as="sourcePoint" />
            <mxPoint x="402.3800000000001" y="550.96" as="targetPoint" />
            <Array as="points">
              <mxPoint x="250" y="520" />
              <mxPoint x="402" y="520" />
            </Array>
          </mxGeometry>
        </mxCell>
        <mxCell id="uPx1fFkBoxGe7iKVYnNN-11" value="Vector Embeding" style="rounded=1;whiteSpace=wrap;html=1;" vertex="1" parent="1">
          <mxGeometry x="200" y="440" width="120" height="40" as="geometry" />
        </mxCell>
        <mxCell id="uPx1fFkBoxGe7iKVYnNN-17" value="" style="edgeStyle=orthogonalEdgeStyle;curved=1;rounded=0;orthogonalLoop=1;jettySize=auto;html=1;" edge="1" parent="1" source="uPx1fFkBoxGe7iKVYnNN-12" target="uPx1fFkBoxGe7iKVYnNN-13">
          <mxGeometry relative="1" as="geometry" />
        </mxCell>
        <mxCell id="uPx1fFkBoxGe7iKVYnNN-20" value="" style="edgeStyle=orthogonalEdgeStyle;curved=1;rounded=0;orthogonalLoop=1;jettySize=auto;html=1;" edge="1" parent="1" source="uPx1fFkBoxGe7iKVYnNN-12" target="uPx1fFkBoxGe7iKVYnNN-19">
          <mxGeometry relative="1" as="geometry" />
        </mxCell>
        <mxCell id="uPx1fFkBoxGe7iKVYnNN-12" value="Vector Embeding" style="rounded=1;whiteSpace=wrap;html=1;" vertex="1" parent="1">
          <mxGeometry x="360" y="440" width="120" height="40" as="geometry" />
        </mxCell>
        <mxCell id="uPx1fFkBoxGe7iKVYnNN-27" value="" style="edgeStyle=orthogonalEdgeStyle;curved=1;rounded=0;orthogonalLoop=1;jettySize=auto;html=1;entryX=0.576;entryY=0.072;entryDx=0;entryDy=0;entryPerimeter=0;" edge="1" parent="1">
          <mxGeometry relative="1" as="geometry">
            <mxPoint x="592.4" y="474.24" as="sourcePoint" />
            <mxPoint x="440.01999999999987" y="550" as="targetPoint" />
            <Array as="points">
              <mxPoint x="592.4" y="524.24" />
              <mxPoint x="440.4" y="524.24" />
            </Array>
          </mxGeometry>
        </mxCell>
        <mxCell id="uPx1fFkBoxGe7iKVYnNN-13" value="" style="rounded=1;whiteSpace=wrap;html=1;" vertex="1" parent="1">
          <mxGeometry x="520" y="440" width="120" height="40" as="geometry" />
        </mxCell>
        <mxCell id="uPx1fFkBoxGe7iKVYnNN-19" value="Build Semantic&lt;br&gt;&amp;nbsp;Index" style="ellipse;whiteSpace=wrap;html=1;" vertex="1" parent="1">
          <mxGeometry x="358.5" y="550" width="120" height="80" as="geometry" />
        </mxCell>
        <mxCell id="uPx1fFkBoxGe7iKVYnNN-28" value="" style="shape=singleArrow;whiteSpace=wrap;html=1;arrowWidth=0.4;arrowSize=0.4;rotation=90;" vertex="1" parent="1">
          <mxGeometry x="385.94" y="660" width="68.12" height="40" as="geometry" />
        </mxCell>
        <mxCell id="uPx1fFkBoxGe7iKVYnNN-31" value="Vec DB" style="shape=cylinder3;whiteSpace=wrap;html=1;boundedLbl=1;backgroundOutline=1;size=15;" vertex="1" parent="1">
          <mxGeometry x="360" y="725" width="120" height="100" as="geometry" />
        </mxCell>
        <mxCell id="uPx1fFkBoxGe7iKVYnNN-32" style="edgeStyle=orthogonalEdgeStyle;curved=1;rounded=0;orthogonalLoop=1;jettySize=auto;html=1;exitX=0;exitY=0;exitDx=20.436;exitDy=28;exitPerimeter=0;entryX=0;entryY=0;entryDx=20.436;entryDy=12;entryPerimeter=0;" edge="1" parent="1" source="uPx1fFkBoxGe7iKVYnNN-28" target="uPx1fFkBoxGe7iKVYnNN-28">
          <mxGeometry relative="1" as="geometry" />
        </mxCell>
        <mxCell id="uPx1fFkBoxGe7iKVYnNN-39" value="" style="edgeStyle=orthogonalEdgeStyle;curved=1;rounded=0;orthogonalLoop=1;jettySize=auto;html=1;entryX=0.396;entryY=-0.068;entryDx=0;entryDy=0;entryPerimeter=0;" edge="1" parent="1" source="uPx1fFkBoxGe7iKVYnNN-36" target="uPx1fFkBoxGe7iKVYnNN-37">
          <mxGeometry relative="1" as="geometry" />
        </mxCell>
        <mxCell id="uPx1fFkBoxGe7iKVYnNN-36" value="Query" style="ellipse;shape=cloud;whiteSpace=wrap;html=1;" vertex="1" parent="1">
          <mxGeometry x="70" y="610" width="115" height="90" as="geometry" />
        </mxCell>
        <mxCell id="uPx1fFkBoxGe7iKVYnNN-40" value="" style="edgeStyle=orthogonalEdgeStyle;curved=1;rounded=0;orthogonalLoop=1;jettySize=auto;html=1;" edge="1" parent="1" source="uPx1fFkBoxGe7iKVYnNN-37" target="uPx1fFkBoxGe7iKVYnNN-38">
          <mxGeometry relative="1" as="geometry" />
        </mxCell>
        <mxCell id="uPx1fFkBoxGe7iKVYnNN-37" value="Query&amp;nbsp;&lt;br&gt;Embeding" style="rounded=1;whiteSpace=wrap;html=1;" vertex="1" parent="1">
          <mxGeometry x="100" y="750" width="70" height="50" as="geometry" />
        </mxCell>
        <mxCell id="uPx1fFkBoxGe7iKVYnNN-38" value="Sementic&amp;nbsp;&lt;br&gt;Search" style="rounded=1;whiteSpace=wrap;html=1;" vertex="1" parent="1">
          <mxGeometry x="225" y="750" width="70" height="50" as="geometry" />
        </mxCell>
        <mxCell id="uPx1fFkBoxGe7iKVYnNN-43" value="" style="edgeStyle=orthogonalEdgeStyle;curved=1;rounded=0;orthogonalLoop=1;jettySize=auto;html=1;" edge="1" parent="1" source="uPx1fFkBoxGe7iKVYnNN-38" target="uPx1fFkBoxGe7iKVYnNN-31">
          <mxGeometry relative="1" as="geometry">
            <mxPoint x="295" y="775" as="sourcePoint" />
            <mxPoint x="260" y="690" as="targetPoint" />
          </mxGeometry>
        </mxCell>
        <mxCell id="uPx1fFkBoxGe7iKVYnNN-47" value="" style="shape=singleArrow;whiteSpace=wrap;html=1;arrowWidth=0.4;arrowSize=0.4;rotation=90;" vertex="1" parent="1">
          <mxGeometry x="385.94000000000005" y="850" width="68.12" height="40" as="geometry" />
        </mxCell>
        <mxCell id="uPx1fFkBoxGe7iKVYnNN-48" value="Ranked Result" style="rounded=1;whiteSpace=wrap;html=1;" vertex="1" parent="1">
          <mxGeometry x="360" y="910" width="120" height="40" as="geometry" />
        </mxCell>
        <mxCell id="uPx1fFkBoxGe7iKVYnNN-49" style="edgeStyle=orthogonalEdgeStyle;rounded=0;orthogonalLoop=1;jettySize=auto;html=1;exitX=1;exitY=1;exitDx=0;exitDy=0;entryX=0.936;entryY=0.993;entryDx=0;entryDy=0;entryPerimeter=0;" edge="1" parent="1" source="uPx1fFkBoxGe7iKVYnNN-48" target="uPx1fFkBoxGe7iKVYnNN-48">
          <mxGeometry relative="1" as="geometry" />
        </mxCell>
        <mxCell id="uPx1fFkBoxGe7iKVYnNN-51" value="LLM (PALM2)" style="rounded=1;whiteSpace=wrap;html=1;" vertex="1" parent="1">
          <mxGeometry x="360" y="1000" width="120" height="40" as="geometry" />
        </mxCell>
        <mxCell id="uPx1fFkBoxGe7iKVYnNN-52" value="" style="endArrow=classic;html=1;rounded=0;entryX=0.5;entryY=0;entryDx=0;entryDy=0;" edge="1" parent="1" target="uPx1fFkBoxGe7iKVYnNN-51">
          <mxGeometry width="50" height="50" relative="1" as="geometry">
            <mxPoint x="419.5" y="950" as="sourcePoint" />
            <mxPoint x="420" y="990" as="targetPoint" />
          </mxGeometry>
        </mxCell>
        <mxCell id="uPx1fFkBoxGe7iKVYnNN-53" value="Query&amp;nbsp;&lt;br&gt;Response" style="ellipse;shape=cloud;whiteSpace=wrap;html=1;" vertex="1" parent="1">
          <mxGeometry x="550" y="980" width="120" height="80" as="geometry" />
        </mxCell>
        <mxCell id="uPx1fFkBoxGe7iKVYnNN-54" value="" style="shape=flexArrow;endArrow=classic;startArrow=classic;html=1;rounded=0;" edge="1" parent="1">
          <mxGeometry width="100" height="100" relative="1" as="geometry">
            <mxPoint x="480" y="1019.5" as="sourcePoint" />
            <mxPoint x="560" y="1020" as="targetPoint" />
            <Array as="points">
              <mxPoint x="540" y="1019.5" />
            </Array>
          </mxGeometry>
        </mxCell>
        <mxCell id="uPx1fFkBoxGe7iKVYnNN-55" value="&lt;b&gt;&lt;font style=&quot;font-size: 14px;&quot;&gt;Task - 1&lt;/font&gt;&lt;/b&gt;" style="text;html=1;align=center;verticalAlign=middle;resizable=0;points=[];autosize=1;strokeColor=none;fillColor=none;" vertex="1" parent="1">
          <mxGeometry x="700" y="210" width="70" height="30" as="geometry" />
        </mxCell>
        <mxCell id="uPx1fFkBoxGe7iKVYnNN-56" value="&lt;b&gt;&lt;font style=&quot;font-size: 14px;&quot;&gt;Task - 2&lt;/font&gt;&lt;/b&gt;" style="text;html=1;align=center;verticalAlign=middle;resizable=0;points=[];autosize=1;strokeColor=none;fillColor=none;" vertex="1" parent="1">
          <mxGeometry x="700" y="325" width="70" height="30" as="geometry" />
        </mxCell>
        <mxCell id="uPx1fFkBoxGe7iKVYnNN-57" value="&lt;b&gt;&lt;font style=&quot;font-size: 14px;&quot;&gt;Task - 3&lt;/font&gt;&lt;/b&gt;" style="text;html=1;align=center;verticalAlign=middle;resizable=0;points=[];autosize=1;strokeColor=none;fillColor=none;" vertex="1" parent="1">
          <mxGeometry x="700" y="445" width="70" height="30" as="geometry" />
        </mxCell>
        <mxCell id="uPx1fFkBoxGe7iKVYnNN-58" value="" style="shape=curlyBracket;whiteSpace=wrap;html=1;rounded=1;flipH=1;labelPosition=right;verticalLabelPosition=middle;align=left;verticalAlign=middle;" vertex="1" parent="1">
          <mxGeometry x="670" y="690" width="20" height="380" as="geometry" />
        </mxCell>
        <mxCell id="uPx1fFkBoxGe7iKVYnNN-61" style="edgeStyle=orthogonalEdgeStyle;rounded=0;orthogonalLoop=1;jettySize=auto;html=1;exitX=0.1;exitY=0.5;exitDx=0;exitDy=0;exitPerimeter=0;entryX=0.48;entryY=0.503;entryDx=0;entryDy=0;entryPerimeter=0;" edge="1" parent="1" source="uPx1fFkBoxGe7iKVYnNN-58" target="uPx1fFkBoxGe7iKVYnNN-58">
          <mxGeometry relative="1" as="geometry" />
        </mxCell>
        <mxCell id="uPx1fFkBoxGe7iKVYnNN-62" value="&lt;b&gt;&lt;font style=&quot;font-size: 14px;&quot;&gt;Task - 4&lt;/font&gt;&lt;/b&gt;" style="text;html=1;align=center;verticalAlign=middle;resizable=0;points=[];autosize=1;strokeColor=none;fillColor=none;" vertex="1" parent="1">
          <mxGeometry x="700" y="865" width="70" height="30" as="geometry" />
        </mxCell>
        <mxCell id="uPx1fFkBoxGe7iKVYnNN-64" value="Conversational&lt;br&gt;retrieval" style="text;html=1;align=center;verticalAlign=middle;resizable=0;points=[];autosize=1;strokeColor=none;fillColor=none;" vertex="1" parent="1">
          <mxGeometry x="690" y="890" width="100" height="40" as="geometry" />
        </mxCell>
        <mxCell id="uPx1fFkBoxGe7iKVYnNN-65" value="(Extraction)&lt;div&gt;&lt;br&gt;&lt;/div&gt;" style="text;html=1;align=center;verticalAlign=middle;resizable=0;points=[];autosize=1;strokeColor=none;fillColor=none;" vertex="1" parent="1">
          <mxGeometry x="695" y="230" width="80" height="40" as="geometry" />
        </mxCell>
        <mxCell id="uPx1fFkBoxGe7iKVYnNN-66" value="(Chunking)" style="text;html=1;align=center;verticalAlign=middle;resizable=0;points=[];autosize=1;strokeColor=none;fillColor=none;" vertex="1" parent="1">
          <mxGeometry x="695" y="350" width="80" height="30" as="geometry" />
        </mxCell>
        <mxCell id="uPx1fFkBoxGe7iKVYnNN-68" value="(Embeding &lt;br&gt;Genration)" style="text;html=1;align=center;verticalAlign=middle;resizable=0;points=[];autosize=1;strokeColor=none;fillColor=none;" vertex="1" parent="1">
          <mxGeometry x="695" y="470" width="80" height="40" as="geometry" />
        </mxCell>
        <mxCell id="uPx1fFkBoxGe7iKVYnNN-69" value="" style="shape=curlyBracket;whiteSpace=wrap;html=1;rounded=1;flipH=1;labelPosition=right;verticalLabelPosition=middle;align=left;verticalAlign=middle;" vertex="1" parent="1">
          <mxGeometry x="675" y="420" width="20" height="100" as="geometry" />
        </mxCell>
        <mxCell id="uPx1fFkBoxGe7iKVYnNN-70" value="" style="shape=curlyBracket;whiteSpace=wrap;html=1;rounded=1;flipH=1;labelPosition=right;verticalLabelPosition=middle;align=left;verticalAlign=middle;" vertex="1" parent="1">
          <mxGeometry x="675" y="175" width="20" height="100" as="geometry" />
        </mxCell>
      </root>
    </mxGraphModel>
  </diagram>
</mxfile>
